<?xml version="1.0" standalone="no"?>
<!DOCTYPE svg PUBLIC "-//W3C//DTD SVG 20010904//EN"
 "http://www.w3.org/TR/2001/REC-SVG-20010904/DTD/svg10.dtd">
<svg version="1.0" xmlns="http://www.w3.org/2000/svg"
 width="225.000000pt" height="225.000000pt" viewBox="0 0 225.000000 225.000000"
 preserveAspectRatio="xMidYMid meet">

<g transform="translate(0.000000,225.000000) scale(0.100000,-0.100000)"
fill="#000000" stroke="none">
<path d="M885 1588 c-111 -44 -393 -128 -431 -128 -49 0 -21 -16 89 -50 l112
-35 3 -73 c2 -45 -1 -72 -8 -72 -13 0 -13 -37 0 -45 6 -4 4 -17 -5 -35 -40
-76 -59 -245 -30 -257 23 -8 27 -1 35 64 l7 58 2 -67 c0 -38 5 -68 11 -68 12
0 13 10 12 115 -1 72 0 75 8 35 5 -25 9 -66 9 -92 1 -29 6 -48 12 -48 18 0 5
152 -18 225 -15 46 -17 65 -9 78 8 12 7 22 -2 37 -6 11 -12 45 -12 76 0 54 1
56 23 50 12 -3 25 -6 30 -6 4 0 7 -53 7 -119 0 -103 3 -122 20 -144 24 -30
110 -61 225 -80 l80 -13 -60 -28 c-33 -15 -132 -57 -220 -93 -88 -36 -168 -72
-177 -80 -40 -35 -26 -133 27 -198 l24 -30 -24 49 c-41 82 -26 166 30 166 28
0 90 -51 111 -91 7 -15 14 -50 14 -78 0 -40 -4 -51 -20 -56 -28 -9 -66 20 -90
71 -21 42 -20 84 1 84 22 0 47 -21 59 -50 15 -36 7 -49 -21 -32 -18 12 -19 11
-10 -6 9 -17 31 -32 47 -32 2 0 4 18 4 40 0 30 -7 48 -31 75 -73 83 -123 2
-60 -97 55 -86 88 -88 168 -10 33 32 108 93 166 136 59 44 107 80 107 82 0 6
-167 -102 -225 -145 -72 -54 -75 -55 -75 -33 0 13 24 36 70 68 104 71 86 70
-27 -2 -28 -18 -54 -30 -57 -27 -14 15 -3 30 39 53 56 31 52 38 -6 10 l-44
-21 -51 49 -51 49 56 18 c106 33 246 87 379 147 l133 61 24 -23 c33 -31 40
-57 21 -76 -20 -20 -20 -33 -1 -40 10 -4 -17 -26 -82 -66 -100 -62 -308 -213
-332 -242 -7 -9 42 22 110 67 142 96 272 177 283 177 4 0 -2 -12 -13 -26 -12
-15 -21 -40 -21 -55 0 -24 4 -29 24 -29 27 0 66 42 66 69 -1 10 -6 6 -16 -11
-17 -32 -44 -37 -44 -10 0 11 14 38 31 62 l32 44 24 -49 c19 -36 24 -58 20
-87 -8 -59 23 -65 37 -7 4 21 -2 39 -29 78 -41 60 -43 69 -11 77 29 7 60 -8
104 -50 27 -26 34 -28 42 -16 5 8 10 18 10 21 0 9 -86 49 -105 49 -36 0 -7 20
103 73 120 57 284 117 321 117 49 0 12 170 -49 225 -11 10 -20 13 -20 7 0 -6
5 -14 10 -17 15 -9 50 -81 50 -103 0 -12 -12 -25 -32 -34 -33 -14 -31 -14 19
-2 50 13 18 -18 -37 -37 -51 -17 -45 -18 31 -2 47 9 34 -15 -13 -27 -68 -17
-256 -86 -338 -124 -58 -27 -76 -31 -78 -20 -2 8 10 26 27 40 45 38 57 63 38
81 -18 18 -62 11 -71 -12 -5 -13 -3 -13 18 0 42 28 49 -8 11 -53 -40 -48 -68
-47 -105 6 -17 24 -30 45 -28 46 2 2 39 24 83 50 96 58 240 164 275 202 25 28
25 28 -15 -3 -22 -17 -76 -53 -120 -81 l-80 -51 -6 52 -6 52 -1 -56 -2 -55
-82 -46 c-46 -25 -116 -62 -156 -82 -70 -35 -74 -36 -135 -26 -98 15 -231 65
-249 94 -20 30 -5 34 41 11 51 -26 137 -50 211 -59 33 -4 25 0 -29 14 -81 22
-166 58 -212 90 -49 36 -33 41 34 11 99 -44 119 -46 40 -3 -100 54 -103 57
-103 109 0 41 1 44 23 37 45 -14 204 -92 258 -126 l56 -36 87 59 c153 102 325
181 476 220 l45 11 -95 25 c-52 13 -149 42 -215 64 -158 53 -159 53 -95 23 30
-14 112 -45 182 -69 l128 -43 -108 -37 c-134 -46 -236 -93 -331 -152 -72 -45
-74 -46 -100 -29 -58 37 -192 101 -285 136 -107 40 -108 42 -23 70 21 6 37 14
34 16 -2 2 -34 -6 -72 -19 -65 -22 -70 -23 -136 -8 -38 9 -69 19 -69 22 0 4
17 10 38 14 61 11 291 91 372 128 100 47 79 44 -45 -5z"/>
</g>
</svg>
